<svg width="66" height="26" viewBox="0 0 66 26" fill="none" xmlns="http://www.w3.org/2000/svg">
<path d="M17.892 21.212H7.884L6.228 26H0.936L9.972 0.835998H15.84L24.876 26H19.548L17.892 21.212ZM16.524 17.18L12.888 6.668L9.252 17.18H16.524ZM42.5095 13.112C43.9255 13.376 45.0895 14.084 46.0015 15.236C46.9135 16.388 47.3695 17.708 47.3695 19.196C47.3695 20.54 47.0335 21.728 46.3615 22.76C45.7135 23.768 44.7655 24.56 43.5175 25.136C42.2695 25.712 40.7935 26 39.0895 26H28.2535V0.872H38.6215C40.3255 0.872 41.7895 1.148 43.0135 1.7C44.2615 2.252 45.1975 3.02 45.8215 4.004C46.4695 4.988 46.7935 6.104 46.7935 7.352C46.7935 8.816 46.3975 10.04 45.6055 11.024C44.8375 12.008 43.8055 12.704 42.5095 13.112ZM33.2935 11.24H37.9015C39.1015 11.24 40.0255 10.976 40.6735 10.448C41.3215 9.896 41.6455 9.116 41.6455 8.108C41.6455 7.1 41.3215 6.32 40.6735 5.768C40.0255 5.216 39.1015 4.94 37.9015 4.94H33.2935V11.24ZM38.3695 21.896C39.5935 21.896 40.5415 21.608 41.2135 21.032C41.9095 20.456 42.2575 19.64 42.2575 18.584C42.2575 17.504 41.8975 16.664 41.1775 16.064C40.4575 15.44 39.4855 15.128 38.2615 15.128H33.2935V21.896H38.3695ZM56.4263 4.94V11.24H64.8863V15.236H56.4263V21.896H65.9663V26H51.3863V0.835998H65.9663V4.94H56.4263Z" fill="white"/>
</svg>
